# xmcd
#
# Track frame offsets:
#	150
#	16508
#	30205
#	47166
#	64750
#	78114
#	94652
#	111029
#	129303
#	145794
#	160984
#
# Disc length: 2412 seconds
#
# Revision: 2
# Processed by: cddbd v1.5.2PL0 Copyright (c) Steve Scherf et al.
# Submitted via: audiograbber 1.83.01
#
DISCID=77096a0b
DTITLE=The Band Perry - The Band Perry
DYEAR=2011
DGENRE=Country
TTITLE0=You Lie
TTITLE1=Hip To The Heart
TTITLE2=If I Die Young
TTITLE3=All Your Life
TTITLE4=Miss You Being Gone
TTITLE5=Double Heart
TTITLE6=Postcard From Paris
TTITLE7=Walk Me Down The Middle
TTITLE8=Independence
TTITLE9=Quittin You
TTITLE10=Lasso
EXTD=
EXTT0=
EXTT1=
EXTT2=
EXTT3=
EXTT4=
EXTT5=
EXTT6=
EXTT7=
EXTT8=
EXTT9=
EXTT10=
PLAYORDER=
